<?xml version="1.0" encoding="iso-8859-1"?>
<!-- Generator: Adobe Illustrator 19.0.0, SVG Export Plug-In . SVG Version: 6.00 Build 0)  -->
<svg version="1.1" id="Layer_1" xmlns="http://www.w3.org/2000/svg" xmlns:xlink="http://www.w3.org/1999/xlink" x="0px" y="0px"
	 viewBox="0 0 512 512" style="enable-background:new 0 0 512 512;" xml:space="preserve">
<g>
	<g>
		<path d="M373.106,59.915c4.512,0,8.17-3.658,8.17-8.17V8.17c0-4.512-3.658-8.17-8.17-8.17H138.894c-4.512,0-8.17,3.658-8.17,8.17
			v43.574c0,4.512,3.658,8.17,8.17,8.17h2.723v16.34h-2.723c-4.512,0-8.17,3.658-8.17,8.17V128c0,4.512,3.658,8.17,8.17,8.17h2.723
			v16.34h-2.723c-4.512,0-8.17,3.658-8.17,8.17v43.574c0,4.512,3.658,8.17,8.17,8.17h234.213c4.512,0,8.17-3.658,8.17-8.17v-43.574
			c0-4.512-3.658-8.17-8.17-8.17h-2.723v-16.34h2.723c4.512,0,8.17-3.658,8.17-8.17V84.426c0-4.512-3.658-8.17-8.17-8.17h-2.723
			v-16.34H373.106z M364.936,196.085H147.064v-27.234h217.872V196.085z M364.936,119.83h-35.404c-4.512,0-8.17,3.658-8.17,8.17
			s3.658,8.17,8.17,8.17h24.511v16.34H157.957v-16.34h138.894c4.512,0,8.17-3.658,8.17-8.17s-3.658-8.17-8.17-8.17H147.064V92.596
			h217.872V119.83z M157.957,76.255v-16.34h196.085v16.34H157.957z M364.936,43.574H147.064V16.34h217.872V43.574z"/>
	</g>
</g>
<g>
	<g>
		<path d="M471.149,228.766H40.851c-4.512,0-8.17,3.658-8.17,8.17v32.681c0,4.512,3.658,8.17,8.17,8.17h2.723v95.319
			c0,2.167,0.861,4.245,2.393,5.777l30.287,30.287v61.978c0,4.512,3.658,8.17,8.17,8.17h32.681c4.512,0,8.17-3.658,8.17-8.17
			s-3.658-8.17-8.17-8.17H92.596v-49.021h326.808v49.021H369.56c-3.795-18.624-20.3-32.681-40.029-32.681
			c-22.526,0-40.851,18.325-40.851,40.851S307.006,512,329.532,512c19.728,0,36.233-14.057,40.029-32.681h58.014
			c4.512,0,8.17-3.658,8.17-8.17v-61.978l30.288-30.288c1.533-1.532,2.393-3.61,2.393-5.777v-95.319h2.723
			c4.512,0,8.17-3.658,8.17-8.17v-32.681C479.319,232.424,475.661,228.766,471.149,228.766z M329.532,495.66
			c-13.516,0-24.511-10.995-24.511-24.511c0-13.516,10.995-24.511,24.511-24.511s24.511,10.995,24.511,24.511
			C354.043,484.665,343.048,495.66,329.532,495.66z M452.085,369.723l-27.894,27.894H87.809l-27.894-27.894v-91.936h392.17V369.723z
			 M462.979,261.447H49.021v-16.34h413.957V261.447z"/>
	</g>
</g>
<g>
	<g>
		<path d="M264.17,462.979h-41.674c-3.795-18.624-20.3-32.681-40.029-32.681c-22.526,0-40.851,18.325-40.851,40.851
			S159.942,512,182.468,512c19.728,0,36.233-14.057,40.029-32.681h41.674c4.512,0,8.17-3.658,8.17-8.17
			S268.682,462.979,264.17,462.979z M182.468,495.66c-13.516,0-24.511-10.995-24.511-24.511c0-13.516,10.995-24.511,24.511-24.511
			c13.516,0,24.511,10.995,24.511,24.511C206.979,484.665,195.984,495.66,182.468,495.66z"/>
	</g>
</g>
<g>
	<g>
		<path d="M414.037,364.936h-81.782v-62.638c0-4.512-3.658-8.17-8.17-8.17c-4.512,0-8.17,3.658-8.17,8.17v62.638h-119.83v-62.638
			c0-4.512-3.658-8.17-8.17-8.17s-8.17,3.658-8.17,8.17v62.638H97.962c-4.512,0-8.17,3.658-8.17,8.17s3.658,8.17,8.17,8.17h316.075
			c4.512,0,8.17-3.658,8.17-8.17S418.549,364.936,414.037,364.936z"/>
	</g>
</g>
<g>
</g>
<g>
</g>
<g>
</g>
<g>
</g>
<g>
</g>
<g>
</g>
<g>
</g>
<g>
</g>
<g>
</g>
<g>
</g>
<g>
</g>
<g>
</g>
<g>
</g>
<g>
</g>
<g>
</g>
</svg>
