<?xml version="1.0" encoding="iso-8859-1"?>
<!-- Generator: Adobe Illustrator 19.0.0, SVG Export Plug-In . SVG Version: 6.00 Build 0)  -->
<svg version="1.1" id="Layer_1" xmlns="http://www.w3.org/2000/svg" xmlns:xlink="http://www.w3.org/1999/xlink" x="0px" y="0px"
	 viewBox="0 0 512 512" style="enable-background:new 0 0 512 512;" xml:space="preserve">
<polygon style="fill:#88ACB5;" points="427.574,405.789 427.574,471.151 394.894,471.151 362.213,373.109 "/>
<rect x="84.426" y="373.106" style="fill:#A7CBCF;" width="310.468" height="98.043"/>
<polygon style="fill:#FF4719;" points="460.255,373.109 427.574,405.789 394.894,405.789 394.894,340.428 "/>
<g>
	<polygon style="fill:#FF754F;" points="427.574,373.109 394.894,405.789 84.426,405.789 51.745,373.109 239.66,318.64 	"/>
	<polygon style="fill:#FF754F;" points="460.255,258.726 460.255,373.109 427.574,373.109 394.894,258.726 	"/>
</g>
<rect x="51.745" y="258.723" style="fill:#FF9269;" width="375.83" height="114.383"/>
<rect x="307.745" y="29.957" style="fill:#2F5E88;" width="54.468" height="152.511"/>
<rect x="149.787" y="29.957" style="fill:#367596;" width="179.745" height="152.511"/>
<polygon style="fill:#88ACB5;" points="340.426,160.681 318.638,182.468 340.426,204.255 373.106,204.255 373.106,160.681 "/>
<rect x="138.894" y="160.681" style="fill:#A7CBCF;" width="201.532" height="43.574"/>
<polygon style="fill:#88ACB5;" points="340.426,8.17 318.638,29.957 340.426,51.745 373.106,51.745 373.106,8.17 "/>
<rect x="138.894" y="8.17" style="fill:#A7CBCF;" width="201.532" height="43.574"/>
<polygon style="fill:#88ACB5;" points="340.426,84.426 318.638,106.213 340.426,128 373.106,128 373.106,84.426 "/>
<rect x="138.894" y="84.426" style="fill:#A7CBCF;" width="201.532" height="43.574"/>
<polygon style="fill:#2F5E88;" points="471.149,269.617 438.468,269.617 416.681,253.277 438.468,236.936 471.149,236.936 "/>
<rect x="40.851" y="236.936" style="fill:#367596;" width="397.617" height="32.681"/>
<path style="fill:#2F5E88;" d="M182.468,438.468c18.049,0,32.681,14.632,32.681,32.681c0,18.049-14.632,32.681-32.681,32.681
	l-12.71-32.681L182.468,438.468z"/>
<path style="fill:#367596;" d="M149.787,471.149c0,18.049,14.632,32.681,32.681,32.681v-65.362
	C164.42,438.468,149.787,453.1,149.787,471.149z"/>
<path style="fill:#2F5E88;" d="M329.532,438.468c18.049,0,32.681,14.632,32.681,32.681c0,18.049-14.632,32.681-32.681,32.681
	l-12.71-32.681L329.532,438.468z"/>
<path style="fill:#367596;" d="M296.851,471.149c0,18.049,14.632,32.681,32.681,32.681v-65.362
	C311.483,438.468,296.851,453.1,296.851,471.149z"/>
<path d="M138.894,212.426h234.213c4.512,0,8.17-3.658,8.17-8.17v-43.574c0-4.512-3.658-8.17-8.17-8.17h-2.723v-16.34h2.723
	c4.512,0,8.17-3.658,8.17-8.17V84.426c0-4.512-3.658-8.17-8.17-8.17h-2.723v-16.34h2.723c4.512,0,8.17-3.658,8.17-8.17V8.17
	c0-4.512-3.658-8.17-8.17-8.17H138.894c-4.512,0-8.17,3.658-8.17,8.17v43.574c0,4.512,3.658,8.17,8.17,8.17h2.723v16.34h-2.723
	c-4.512,0-8.17,3.658-8.17,8.17V128c0,4.512,3.658,8.17,8.17,8.17h2.723v16.34h-2.723c-4.512,0-8.17,3.658-8.17,8.17v43.574
	C130.723,208.767,134.381,212.426,138.894,212.426z M364.936,196.085H147.064v-27.234h217.872V196.085z M147.064,16.34h217.872
	v27.234H147.064V16.34z M157.957,59.915h196.085v16.34H157.957V59.915z M157.957,136.17h138.894c4.512,0,8.17-3.658,8.17-8.17
	c0-4.512-3.658-8.17-8.17-8.17H147.064V92.596h217.872v27.234h-35.404c-4.512,0-8.17,3.658-8.17,8.17c0,4.512,3.658,8.17,8.17,8.17
	h24.511v16.34H157.957V136.17z"/>
<path d="M471.149,228.766H40.851c-4.512,0-8.17,3.658-8.17,8.17v32.681c0,4.512,3.658,8.17,8.17,8.17h2.723v95.319
	c0,2.167,0.861,4.245,2.393,5.777l30.288,30.288v61.978c0,4.512,3.658,8.17,8.17,8.17h32.681c4.512,0,8.17-3.658,8.17-8.17
	c0-4.512-3.658-8.17-8.17-8.17H92.596v-49.021h326.809v49.021H369.56c-3.795-18.624-20.3-32.681-40.029-32.681
	c-22.526,0-40.851,18.325-40.851,40.851c0,22.526,18.325,40.851,40.851,40.851c19.728,0,36.233-14.057,40.029-32.681h58.014
	c4.512,0,8.17-3.658,8.17-8.17v-61.978l30.288-30.288c1.533-1.532,2.393-3.61,2.393-5.777v-95.319h2.723
	c4.512,0,8.17-3.658,8.17-8.17v-32.681C479.319,232.424,475.661,228.766,471.149,228.766z M329.532,495.66
	c-13.516,0-24.511-10.995-24.511-24.511s10.995-24.511,24.511-24.511c13.516,0,24.511,10.995,24.511,24.511
	S343.048,495.66,329.532,495.66z M49.021,245.106h413.957v16.34H49.021V245.106z M452.085,369.723l-27.894,27.894H87.809
	l-27.894-27.894v-91.936h392.17V369.723z"/>
<path d="M264.17,462.979h-41.674c-3.795-18.624-20.3-32.681-40.029-32.681c-22.526,0-40.851,18.325-40.851,40.851
	c0,22.526,18.325,40.851,40.851,40.851c19.728,0,36.233-14.057,40.029-32.681h41.674c4.512,0,8.17-3.658,8.17-8.17
	C272.34,466.637,268.682,462.979,264.17,462.979z M182.468,495.66c-13.516,0-24.511-10.995-24.511-24.511
	s10.995-24.511,24.511-24.511s24.511,10.995,24.511,24.511S195.984,495.66,182.468,495.66z"/>
<path d="M97.962,381.277h316.075c4.512,0,8.17-3.658,8.17-8.17c0-4.512-3.658-8.17-8.17-8.17h-81.782v-62.638
	c0-4.512-3.658-8.17-8.17-8.17c-4.512,0-8.17,3.658-8.17,8.17v62.638h-119.83v-62.638c0-4.512-3.658-8.17-8.17-8.17
	s-8.17,3.658-8.17,8.17v62.638H97.962c-4.512,0-8.17,3.658-8.17,8.17C89.792,377.618,93.45,381.277,97.962,381.277z"/>
<g>
</g>
<g>
</g>
<g>
</g>
<g>
</g>
<g>
</g>
<g>
</g>
<g>
</g>
<g>
</g>
<g>
</g>
<g>
</g>
<g>
</g>
<g>
</g>
<g>
</g>
<g>
</g>
<g>
</g>
</svg>
